<svg width="62" height="62" viewBox="0 0 62 62" fill="none" xmlns="http://www.w3.org/2000/svg">
<rect width="62" height="62" fill="url(#paint0_linear_163_91)"/>
<path d="M25.5531 31.1885C25.5531 28.0721 28.0802 25.5452 31.1984 25.5452C34.3166 25.5452 36.845 28.0721 36.845 31.1885C36.845 34.3048 34.3166 36.8317 31.1984 36.8317C28.0802 36.8317 25.5531 34.3048 25.5531 31.1885ZM22.5006 31.1885C22.5006 35.9894 26.3946 39.881 31.1984 39.881C36.0022 39.881 39.8961 35.9894 39.8961 31.1885C39.8961 26.3876 36.0022 22.4959 31.1984 22.4959C26.3946 22.4959 22.5006 26.3876 22.5006 31.1885ZM38.2078 22.1512C38.2077 22.553 38.3267 22.9458 38.55 23.28C38.7732 23.6141 39.0905 23.8746 39.4619 24.0285C39.8332 24.1824 40.2419 24.2228 40.6362 24.1446C41.0306 24.0664 41.3928 23.873 41.6772 23.5891C41.9616 23.3051 42.1553 22.9432 42.2339 22.5492C42.3125 22.1551 42.2724 21.7467 42.1187 21.3754C41.965 21.0042 41.7046 20.6868 41.3704 20.4634C41.0363 20.2401 40.6433 20.1208 40.2413 20.1206H40.2405C39.7016 20.1209 39.1849 20.3349 38.8038 20.7156C38.4226 21.0964 38.2083 21.6127 38.2078 22.1512ZM24.3552 44.9678C22.7037 44.8927 21.8061 44.6177 21.2096 44.3855C20.4188 44.0778 19.8545 43.7113 19.2613 43.1192C18.668 42.5271 18.3008 41.9638 17.9943 41.1734C17.7617 40.5775 17.4866 39.6802 17.4116 38.0297C17.3294 36.2453 17.3131 35.7093 17.3131 31.1886C17.3131 26.6679 17.3308 26.1334 17.4116 24.3475C17.4868 22.697 17.7639 21.8014 17.9943 21.2038C18.3021 20.4134 18.6688 19.8495 19.2613 19.2566C19.8537 18.6637 20.4174 18.2967 21.2096 17.9904C21.8058 17.758 22.7037 17.4831 24.3552 17.408C26.1406 17.326 26.677 17.3096 31.1984 17.3096C35.7198 17.3096 36.2567 17.3273 38.0436 17.408C39.6951 17.4832 40.5912 17.7601 41.1892 17.9904C41.98 18.2967 42.5443 18.6645 43.1375 19.2566C43.7308 19.8487 44.0967 20.4134 44.4045 21.2038C44.6371 21.7997 44.9121 22.697 44.9872 24.3475C45.0693 26.1334 45.0857 26.6679 45.0857 31.1886C45.0857 35.7093 45.0693 36.2438 44.9872 38.0297C44.912 39.6802 44.6356 40.5773 44.4045 41.1734C44.0967 41.9638 43.73 42.5277 43.1375 43.1192C42.5451 43.7108 41.98 44.0778 41.1892 44.3855C40.5929 44.6179 39.6951 44.8928 38.0436 44.9678C36.2581 45.0499 35.7218 45.0663 31.1984 45.0663C26.675 45.0663 26.1401 45.0499 24.3552 44.9678ZM24.2149 14.3625C22.4117 14.4446 21.1795 14.7303 20.1035 15.1488C18.989 15.581 18.0456 16.1607 17.1029 17.1014C16.1601 18.0421 15.5815 18.9864 15.1491 20.1002C14.7304 21.1763 14.4445 22.4071 14.3623 24.2092C14.2789 26.0142 14.2598 26.5912 14.2598 31.1885C14.2598 35.7857 14.2789 36.3627 14.3623 38.1677C14.4445 39.97 14.7304 41.2006 15.1491 42.2767C15.5815 43.3898 16.1603 44.3352 17.1029 45.2755C18.0455 46.2158 18.989 46.7947 20.1035 47.2281C21.1816 47.6466 22.4117 47.9323 24.2149 48.0144C26.0219 48.0965 26.5984 48.1169 31.1984 48.1169C35.7984 48.1169 36.3758 48.0978 38.1818 48.0144C39.9852 47.9323 41.2166 47.6466 42.2933 47.2281C43.4071 46.7947 44.3511 46.2162 45.2939 45.2755C46.2366 44.3348 46.814 43.3898 47.2476 42.2767C47.6664 41.2006 47.9536 39.9699 48.0344 38.1677C48.1165 36.3614 48.1356 35.7857 48.1356 31.1885C48.1356 26.5912 48.1165 26.0142 48.0344 24.2092C47.9523 22.4069 47.6664 21.1756 47.2476 20.1002C46.814 18.9871 46.2351 18.0436 45.2939 17.1014C44.3526 16.1592 43.4071 15.581 42.2947 15.1488C41.2166 14.7303 39.985 14.4432 38.1832 14.3625C36.3771 14.2805 35.7997 14.26 31.1997 14.26C26.5997 14.26 26.0219 14.2791 24.2149 14.3625Z" fill="white"/>
<path d="M25.5531 31.1885C25.5531 28.0721 28.0802 25.5452 31.1984 25.5452C34.3166 25.5452 36.845 28.0721 36.845 31.1885C36.845 34.3048 34.3166 36.8317 31.1984 36.8317C28.0802 36.8317 25.5531 34.3048 25.5531 31.1885ZM22.5006 31.1885C22.5006 35.9894 26.3946 39.881 31.1984 39.881C36.0022 39.881 39.8961 35.9894 39.8961 31.1885C39.8961 26.3876 36.0022 22.4959 31.1984 22.4959C26.3946 22.4959 22.5006 26.3876 22.5006 31.1885ZM38.2078 22.1512C38.2077 22.553 38.3267 22.9458 38.55 23.28C38.7732 23.6141 39.0905 23.8746 39.4619 24.0285C39.8332 24.1824 40.2419 24.2228 40.6362 24.1446C41.0306 24.0664 41.3928 23.873 41.6772 23.5891C41.9616 23.3051 42.1553 22.9432 42.2339 22.5492C42.3125 22.1551 42.2724 21.7467 42.1187 21.3754C41.965 21.0042 41.7046 20.6868 41.3704 20.4634C41.0363 20.2401 40.6433 20.1208 40.2413 20.1206H40.2405C39.7016 20.1209 39.1849 20.3349 38.8038 20.7156C38.4226 21.0964 38.2083 21.6127 38.2078 22.1512ZM24.3552 44.9678C22.7037 44.8927 21.8061 44.6177 21.2096 44.3855C20.4188 44.0778 19.8545 43.7113 19.2613 43.1192C18.668 42.5271 18.3008 41.9638 17.9943 41.1734C17.7617 40.5775 17.4866 39.6802 17.4116 38.0297C17.3294 36.2453 17.3131 35.7093 17.3131 31.1886C17.3131 26.6679 17.3308 26.1334 17.4116 24.3475C17.4868 22.697 17.7639 21.8014 17.9943 21.2038C18.3021 20.4134 18.6688 19.8495 19.2613 19.2566C19.8537 18.6637 20.4174 18.2967 21.2096 17.9904C21.8058 17.758 22.7037 17.4831 24.3552 17.408C26.1406 17.326 26.677 17.3096 31.1984 17.3096C35.7198 17.3096 36.2567 17.3273 38.0436 17.408C39.6951 17.4832 40.5912 17.7601 41.1892 17.9904C41.98 18.2967 42.5443 18.6645 43.1375 19.2566C43.7308 19.8487 44.0967 20.4134 44.4045 21.2038C44.6371 21.7997 44.9121 22.697 44.9872 24.3475C45.0693 26.1334 45.0857 26.6679 45.0857 31.1886C45.0857 35.7093 45.0693 36.2438 44.9872 38.0297C44.912 39.6802 44.6356 40.5773 44.4045 41.1734C44.0967 41.9638 43.73 42.5277 43.1375 43.1192C42.5451 43.7108 41.98 44.0778 41.1892 44.3855C40.5929 44.6179 39.6951 44.8928 38.0436 44.9678C36.2581 45.0499 35.7218 45.0663 31.1984 45.0663C26.675 45.0663 26.1401 45.0499 24.3552 44.9678ZM24.2149 14.3625C22.4117 14.4446 21.1795 14.7303 20.1035 15.1488C18.989 15.581 18.0456 16.1607 17.1029 17.1014C16.1601 18.0421 15.5815 18.9864 15.1491 20.1002C14.7304 21.1763 14.4445 22.4071 14.3623 24.2092C14.2789 26.0142 14.2598 26.5912 14.2598 31.1885C14.2598 35.7857 14.2789 36.3627 14.3623 38.1677C14.4445 39.97 14.7304 41.2006 15.1491 42.2767C15.5815 43.3898 16.1603 44.3352 17.1029 45.2755C18.0455 46.2158 18.989 46.7947 20.1035 47.2281C21.1816 47.6466 22.4117 47.9323 24.2149 48.0144C26.0219 48.0965 26.5984 48.1169 31.1984 48.1169C35.7984 48.1169 36.3758 48.0978 38.1818 48.0144C39.9852 47.9323 41.2166 47.6466 42.2933 47.2281C43.4071 46.7947 44.3511 46.2162 45.2939 45.2755C46.2366 44.3348 46.814 43.3898 47.2476 42.2767C47.6664 41.2006 47.9536 39.9699 48.0344 38.1677C48.1165 36.3614 48.1356 35.7857 48.1356 31.1885C48.1356 26.5912 48.1165 26.0142 48.0344 24.2092C47.9523 22.4069 47.6664 21.1756 47.2476 20.1002C46.814 18.9871 46.2351 18.0436 45.2939 17.1014C44.3526 16.1592 43.4071 15.581 42.2947 15.1488C41.2166 14.7303 39.985 14.4432 38.1832 14.3625C36.3771 14.2805 35.7997 14.26 31.1997 14.26C26.5997 14.26 26.0219 14.2791 24.2149 14.3625Z" fill="white"/>
<defs>
<linearGradient id="paint0_linear_163_91" x1="60.8084" y1="62" x2="-1.19164" y2="-1.66887e-06" gradientUnits="userSpaceOnUse">
<stop stop-color="#FBE18A"/>
<stop offset="0.21" stop-color="#FCBB45"/>
<stop offset="0.38" stop-color="#F75274"/>
<stop offset="0.52" stop-color="#D53692"/>
<stop offset="0.74" stop-color="#8F39CE"/>
<stop offset="1" stop-color="#5B4FE9"/>
</linearGradient>
</defs>
</svg>
