<svg width="62" height="62" viewBox="0 0 62 62" fill="none" xmlns="http://www.w3.org/2000/svg">
<rect width="62" height="62" fill="#0866FF"/>
<mask id="mask0_163_77" style="mask-type:alpha" maskUnits="userSpaceOnUse" x="0" y="0" width="62" height="62">
<rect width="62" height="62" fill="#0866FF"/>
</mask>
<g mask="url(#mask0_163_77)">
<path d="M43.3829 41.398L45.1465 31.794H34.8808V28.3973C34.8808 23.322 36.8719 21.37 42.0253 21.37C43.626 21.37 44.9144 21.409 45.6562 21.487V12.7809C44.2507 12.3905 40.8151 12 38.824 12C28.322 12 23.4808 16.9583 23.4808 27.6556V31.794H17V41.398H23.4808V62.297C25.9125 62.9002 28.4551 63.2225 31.0732 63.2225C32.3623 63.2225 33.6325 63.1431 34.8808 62.9924V41.398H43.3829Z" fill="white"/>
</g>
</svg>
